<?xml version="1.0" encoding="utf-8"?>
<!-- Generator: Adobe Illustrator 28.1.0, SVG Export Plug-In . SVG Version: 6.00 Build 0)  -->
<svg version="1.1" id="Capa_1" xmlns="http://www.w3.org/2000/svg" xmlns:xlink="http://www.w3.org/1999/xlink" x="0px" y="0px"
	 viewBox="0 0 512 353.1" style="enable-background:new 0 0 512 353.1;" xml:space="preserve">
<style type="text/css">
	.st0{fill:#E7E8E3;}
	.st1{opacity:0.15;fill:#202121;enable-background:new    ;}
	.st2{fill:#006E90;}
	.st3{fill:#66CDE7;}
	.st4{fill:#D92B2B;}
</style>
<path class="st0" d="M512,322.8c0,16.7-13.5,30.3-30.3,30.3H30.3C13.6,353.1,0,339.5,0,322.8V30.3C0,13.6,13.6,0,30.3,0h451.5
	C498.5,0,512,13.6,512,30.3L512,322.8L512,322.8z"/>
<path class="st1" d="M21.5,322.8V30.3C21.5,13.6,35.1,0,51.8,0H30.3C13.6,0,0,13.6,0,30.3v292.6c0,16.7,13.6,30.3,30.3,30.3h21.5
	C35.1,353.1,21.5,339.5,21.5,322.8z"/>
<g>
	<path class="st2" d="M146.2,99.9h38c14-0.2,29.4,3.4,29.4,20.4c0,7.3-4.3,13.2-10.7,16.4c8.7,2.5,14,10,14,19.2
		c0,19.4-14.2,25.3-31.7,25.3h-39.1L146.2,99.9L146.2,99.9z M167.3,131.9h16.4c3.6,0,8.7-1.9,8.7-7.7c0-5.9-4.2-7.9-8.7-7.9h-16.4
		L167.3,131.9L167.3,131.9z M167.3,164.3h17c6.7,0,11.4-2.4,11.4-9.1c0-7.2-5-9.6-11.4-9.6h-17V164.3z"/>
	<path class="st2" d="M250.5,99.9H272l30.4,81.3h-22.1l-5-14.6H247l-5.1,14.6h-21.8L250.5,99.9z M251.9,151h18.4l-9-28.5h-0.2
		L251.9,151z"/>
	<path class="st2" d="M308.3,99.9h21.8l28.2,50.1h0.2V99.9h19.9v81.3h-21.8l-28.2-50.7h-0.2v50.7h-19.9V99.9z"/>
	<path class="st2" d="M393,99.9h21.2v31.2l26.8-31.2h26.3l-30.1,32l33.8,49.3h-26.3l-21.9-34.2l-8.7,9.1v25.1H393L393,99.9L393,99.9
		L393,99.9z"/>
</g>
<g>
	<path class="st3" d="M92.9,210.8H76.2v43.5H61.6v-43.5H44.9v-12.5h48V210.8z"/>
	<path class="st3" d="M99.3,198.2h28.5c9.9,0,19.6,4.5,19.6,15.8c0,6-2.9,11.8-8.8,14v0.2c6,1.4,7.7,8.1,8.2,13.4
		c0.2,2.4,0.4,10.6,2.4,12.6h-14.4c-1.3-1.9-1.5-7.4-1.6-8.9c-0.4-5.6-1.3-11.5-8.2-11.5h-11.1v20.4H99.3V198.2z M113.9,222.5h12.2
		c4.4,0,6.7-2.4,6.7-6.6c0-4.2-3.3-6-7.4-6h-11.6C113.9,209.9,113.9,222.5,113.9,222.5z"/>
	<path class="st3" d="M171.2,198.2H186l20.9,56h-15.2l-3.4-10h-19.5l-3.5,10h-15L171.2,198.2z M172.1,233.4h12.7l-6.2-19.6h-0.2
		L172.1,233.4z"/>
	<path class="st3" d="M211,198.2h15l19.5,34.5h0.2v-34.5h13.7v56h-15l-19.5-34.9h-0.2v34.9H211L211,198.2L211,198.2z"/>
	<path class="st3" d="M280.7,235.4c0.3,6.6,4.4,8.7,10.6,8.7c4.4,0,8.9-1.6,8.9-5.7c0-4.9-8-5.9-16.1-8.2c-8-2.3-16.4-5.9-16.4-16.2
		c0-12.2,12.3-17,22.8-17c11.1,0,22.4,5.4,22.4,18h-14.6c0.2-5.1-4.5-6.7-9-6.7c-3.1,0-7.1,1.1-7.1,4.8c0,4.3,8.1,5.1,16.2,7.4
		c8.1,2.3,16.2,6,16.2,16.2c0,14.2-12.1,18.7-24.4,18.7c-12.9,0-24.2-5.6-24.3-20L280.7,235.4L280.7,235.4z"/>
	<path class="st3" d="M321.6,198.2h41.3v11.7h-26.7v11.5h23.1v11.3h-23.1v21.6h-14.6V198.2z"/>
	<path class="st3" d="M369.5,198.2h44.6v11.7h-30v9.8h27.5V231h-27.5v10.7h30.8v12.5h-45.4L369.5,198.2L369.5,198.2z"/>
	<path class="st3" d="M423.3,198.2h28.5c9.9,0,19.6,4.5,19.6,15.8c0,6-2.9,11.8-8.8,14v0.2c6,1.4,7.7,8.1,8.2,13.4
		c0.2,2.4,0.4,10.6,2.4,12.6h-14.4c-1.3-1.9-1.5-7.4-1.6-8.9c-0.4-5.6-1.3-11.5-8.2-11.5h-11.1v20.4h-14.6L423.3,198.2L423.3,198.2z
		 M437.9,222.5h12.2c4.4,0,6.7-2.4,6.7-6.6c0-4.2-3.3-6-7.4-6h-11.6V222.5z"/>
</g>
<g>
	<rect x="44.9" y="99.9" class="st4" width="88.3" height="17.7"/>
	<rect x="44.9" y="163.6" class="st4" width="88.3" height="17.7"/>
	<rect x="44.9" y="131.7" class="st4" width="88.3" height="17.7"/>
</g>
</svg>
