<?xml version="1.0" encoding="UTF-8"?>
<svg id="Layer_2" xmlns="http://www.w3.org/2000/svg" width="224.6000061" height="15.3701537" version="1.1" xmlns:xlink="http://www.w3.org/1999/xlink" viewBox="0 0 224.6000061 15.3701537">
  <!-- Generator: Adobe Illustrator 29.2.1, SVG Export Plug-In . SVG Version: 2.1.0 Build 116)  -->
  <defs>
    <style>
      .st0 {
        fill: url(#linear-gradient2);
      }

      .st1 {
        fill: url(#linear-gradient10);
      }

      .st2 {
        fill: url(#linear-gradient1);
      }

      .st3 {
        fill: url(#linear-gradient9);
      }

      .st4 {
        fill: url(#linear-gradient8);
      }

      .st5 {
        fill: url(#linear-gradient11);
      }

      .st6 {
        fill: url(#linear-gradient12);
      }

      .st7 {
        fill: url(#linear-gradient7);
      }

      .st8 {
        fill: url(#linear-gradient4);
      }

      .st9 {
        fill: url(#linear-gradient14);
      }

      .st10 {
        fill: url(#linear-gradient5);
      }

      .st11 {
        fill: url(#linear-gradient3);
      }

      .st12 {
        fill: url(#linear-gradient6);
      }

      .st13 {
        fill: url(#linear-gradient13);
      }

      .st14 {
        fill: url(#linear-gradient);
      }
    </style>
    <linearGradient id="linear-gradient" x1="8.8275042" y1="792.3701537" x2="8.8275042" y2="777.2238841" gradientTransform="translate(0 -777)" gradientUnits="userSpaceOnUse">
      <stop offset=".000001" stop-color="#e7e9e9"/>
      <stop offset=".5685871" stop-color="#f9fafe"/>
      <stop offset="1" stop-color="#f0eee4"/>
    </linearGradient>
    <linearGradient id="linear-gradient1" x1="24.6544027" y1="792.1459678" x2="24.6544027" xlink:href="#linear-gradient"/>
    <linearGradient id="linear-gradient2" x1="39.1507444" x2="39.1507444" xlink:href="#linear-gradient"/>
    <linearGradient id="linear-gradient3" x1="55.4603367" x2="55.4603367" xlink:href="#linear-gradient"/>
    <linearGradient id="linear-gradient4" x1="70.6722355" y1="792.5044244" x2="70.6722355" y2="777.0000007" xlink:href="#linear-gradient"/>
    <linearGradient id="linear-gradient5" x1="93.0387611" y1="792.1459678" x2="93.0387611" xlink:href="#linear-gradient"/>
    <linearGradient id="linear-gradient6" x1="107.4967842" y1="792.1459678" x2="107.4967842" xlink:href="#linear-gradient"/>
    <linearGradient id="linear-gradient7" x1="121.9932747" x2="121.9932747" xlink:href="#linear-gradient"/>
    <linearGradient id="linear-gradient8" x1="135.0254745" x2="135.0254745" y2="777" xlink:href="#linear-gradient"/>
    <linearGradient id="linear-gradient9" x1="146.4592514" y1="792.1459678" x2="146.4592514" xlink:href="#linear-gradient"/>
    <linearGradient id="linear-gradient10" x1="158.506752" y1="792.1459678" x2="158.506752" xlink:href="#linear-gradient"/>
    <linearGradient id="linear-gradient11" x1="173.538063" x2="173.538063" xlink:href="#linear-gradient"/>
    <linearGradient id="linear-gradient12" x1="190.9767227" y1="792.1459678" x2="190.9767227" y2="777.1119421" xlink:href="#linear-gradient"/>
    <linearGradient id="linear-gradient13" x1="207.1651764" x2="207.1651764" xlink:href="#linear-gradient"/>
    <linearGradient id="linear-gradient14" x1="220.19767" x2="220.19767" y2="777" xlink:href="#linear-gradient"/>
  </defs>
  <polygon class="st14" points="11.9612026 14.8427289 11.9612026 15.1459678 17.6550083 15.1459678 17.6550083 14.8437846 15.7064323 14.0375607 15.7064323 1.3322912 17.6550083 .5260672 17.6550083 .2238841 13.5686712 .2238841 8.8716326 11.9319346 4.2204561 .2238841 0 .2238841 0 .5265198 1.9265496 1.3327438 1.9265496 14.0371087 0 14.8433326 0 15.1459678 4.7981191 15.1459678 4.7981191 14.8437846 2.8492415 14.0375607 2.8492415 1.8568498 8.1934929 15.3701537 8.454339 15.3701537 13.8648205 1.866656 13.8648205 14.036505 11.9612026 14.8427289"/>
  <polygon class="st2" points="29.6134949 11.9609006 28.2246284 14.4245303 22.9850788 14.4245303 22.9850788 7.8887451 27.3677139 7.8887451 28.129282 9.9046071 28.5622654 9.9046071 28.5622654 5.2187317 28.130188 5.2187317 27.3686199 7.2795513 22.9850788 7.2795513 22.9850788 .833078 28.1247559 .833078 29.177494 3.3193376 29.6822891 3.3193376 29.6822891 .2238841 19.1950417 .2238841 19.1950417 .5262181 21.1436176 1.3322912 21.1436176 14.0375607 19.1950417 14.8436339 19.1950417 15.1459678 29.7869892 15.1459678 30.1137638 11.9609006 29.6134949 11.9609006"/>
  <polygon class="st0" points="46.6117859 .2238841 41.8362961 .2238841 41.8362961 .5271233 43.7402191 1.3333474 43.7402191 11.5519049 35.2208557 .2238841 31.689703 .2238841 31.689703 .5260672 33.638279 1.3322912 33.638279 14.0375607 31.689703 14.8437846 31.689703 15.1459678 36.4875183 15.1459678 36.4875183 14.8431819 34.5612717 14.0369571 34.5612717 2.3340366 44.2235909 15.3701537 44.6855392 15.3701537 44.6855392 1.3328947 46.6117859 .5266707 46.6117859 .2238841"/>
  <polygon class="st11" points="62.9215279 .2238841 58.1460419 .2238841 58.1460419 .5271233 60.0496597 1.3333474 60.0496597 11.5519049 51.5305977 .2238841 47.9991455 .2238841 47.9991455 .5260672 49.9480209 1.3322912 49.9480209 14.0375607 47.9991455 14.8437846 47.9991455 15.1459678 52.7972641 15.1459678 52.7972641 14.8431819 50.8710136 14.0369571 50.8710136 2.3340366 60.5330315 15.3701537 60.9952812 15.3701537 60.9952812 1.3328947 62.9215279 .5266707 62.9215279 .2238841"/>
  <path class="st8" d="M63.7823677,8.1551736c0,4.4645557,2.6120796,7.3492508,6.6546669,7.3492508,4.1952591,0,7.1250687-3.3075705,7.1250687-8.0435324C77.5621033,2.9285977,74.9234695.0000007,70.8401489.0000007,65.9910355.0000007,63.7823715,4.2273968,63.7823677,8.1551736ZM75.4967499,7.8193472c0,4.2302623-1.8803864,6.9636397-4.7908783,6.9636397-2.9964828,0-4.8581619-2.7369976-4.8581619-7.1428671,0-1.6231594.3421631-6.918983,4.7462234-6.918983,3.6147308,0,4.9028168,3.6667805,4.9028168,7.0982103Z"/>
  <polygon class="st10" points="100.4999542 .5259164 100.4999542 .2238841 94.8059998 .2238841 94.8059998 .5250112 96.7548752 1.3089071 96.7548752 6.8987673 89.3676071 6.8987673 89.3676071 1.3098123 91.2715302 .5259164 91.2715302 .2238841 85.5775681 .2238841 85.5775681 .5250112 87.5264511 1.3089071 87.5264511 14.0375607 85.5775681 14.8437846 85.5775681 15.1459678 91.2715302 15.1459678 91.2715302 14.8427289 89.3676071 14.036505 89.3676071 7.7768028 96.7548752 7.7768028 96.7548752 14.0375607 94.8059998 14.8437846 94.8059998 15.1459678 100.4999542 15.1459678 100.4999542 14.8427289 98.5960388 14.036505 98.5960388 1.3098123 100.4999542 .5259164"/>
  <polygon class="st12" points="112.4557266 11.9609006 111.0671616 14.4245303 105.8276138 14.4245303 105.8276138 7.8887451 110.2102509 7.8887451 110.971817 9.9046071 111.4048004 9.9046071 111.4048004 5.2187317 110.9727249 5.2187317 110.2111511 7.2795513 105.8276138 7.2795513 105.8276138 .833078 110.9672928 .833078 112.0200272 3.3193376 112.524826 3.3193376 112.524826 .2238841 102.0375748 .2238841 102.0375748 .5262181 103.9861526 1.3322912 103.9861526 14.0375607 102.0375748 14.8436339 102.0375748 15.1459678 112.6295242 15.1459678 112.9559937 11.9609006 112.4557266 11.9609006"/>
  <polygon class="st7" points="129.4543152 .2238841 124.678833 .2238841 124.678833 .5271233 126.5827484 1.3333474 126.5827484 11.5519049 118.0633926 .2238841 114.5322342 .2238841 114.5322342 .5260672 116.4808121 1.3322912 116.4808121 14.0375607 114.5322342 14.8437846 114.5322342 15.1459678 119.3300552 15.1459678 119.3300552 14.8431819 117.4038086 14.0369571 117.4038086 2.3340366 127.066124 15.3701537 127.5280762 15.3701537 127.5280762 1.3328947 129.4543152 .5266707 129.4543152 .2238841"/>
  <path class="st4" d="M132.0030365,15.0380996c.9217834.2047243,1.9645691.3320541,2.720108.3320541,1.3695526,0,2.5438843-.3675079,3.3965759-1.0626955.8566132-.7028809,1.3095093-1.7150364,1.3095093-2.9267864,0-.8792429-.2344513-1.7118683-.6432953-2.2845526-.380188-.5701199-.6194458-.8268929-2.0173645-1.7059846l-2.4204865-1.5689988c-1.0168304-.6932259-1.9745178-1.3461709-1.9745178-2.7277949,0-1.5741282,1.1673889-2.3722055,3.4696045-2.3722055.4477692,0,.6508331.0196125,1.2533875.0779973l.2220764.0214229,1.0711365,2.7229674h.5913849V.576758l-1.5554199-.3112351c-.8119507-.1763615-1.6374969-.2655229-2.4560852-.2655229-2.5336304,0-4.2356873,1.5490846-4.2356873,3.8546076,0,.7768052.172287,1.4341252.5123444,1.9540069.3786774.6309185.7464752.9608607,1.9715118,1.7699513l2.2509155,1.5002041c1.077179.7181187,2.0071106,1.3381748,2.0071106,2.8619146,0,.8391123-.3481903,1.559494-.9806213,2.0280819-.6025543.40975-1.2739105.5680075-2.3993683.5680075-.6125183,0-1.1384277-.0420914-1.7050781-.1366835l-.0856934-.0143318-1.1136932-2.7833138h-.5696716v3.0839882c.2377625.0585356.4103546.1045494.5787201.1495075.2250977.0600443.4429474.1181278.802597.2021589Z"/>
  <polygon class="st3" points="151.4181976 11.9609006 150.0296326 14.4245303 144.7900848 14.4245303 144.7900848 7.8887451 149.1727142 7.8887451 149.9342804 9.9046071 150.3672638 9.9046071 150.3672638 5.2187317 149.9351807 5.2187317 149.1736145 7.2795513 144.7900848 7.2795513 144.7900848 .833078 149.9297485 .833078 150.9824982 3.3193376 151.4872894 3.3193376 151.4872894 .2238841 141.0000458 .2238841 141.0000458 .5262181 142.9486237 1.3322912 142.9486237 14.0375607 141.0000458 14.8436339 141.0000458 15.1459678 151.5919952 15.1459678 151.918457 11.9609006 151.4181976 11.9609006"/>
  <polygon class="st1" points="162.9992218 11.6024449 161.5656891 14.4245303 157.2847443 14.4245303 157.2847443 1.3333474 159.1883545 .5271233 159.1883545 .2238841 153.4947052 .2238841 153.4947052 .5262181 155.4432831 1.3322912 155.4432831 14.0375607 153.4947052 14.8436339 153.4947052 15.1459678 163.1889954 15.1459678 163.5187988 11.6024449 162.9992218 11.6024449"/>
  <polygon class="st5" points="176.671524 14.8427289 176.671524 15.1459678 182.3654938 15.1459678 182.3654938 14.8437846 180.4166107 14.0375607 180.4166107 1.3322912 182.3654938 .5260672 182.3654938 .2238841 178.2788544 .2238841 173.5821075 11.9319346 168.9306335 .2238841 164.7106323 .2238841 164.7106323 .5266707 166.6368713 1.3328947 166.6368713 14.0369571 164.7106323 14.8431819 164.7106323 15.1459678 169.5084534 15.1459678 169.5084534 14.8437846 167.5598755 14.0375607 167.5598755 1.8568498 172.9038239 15.3701537 173.1648254 15.3701537 178.5754547 1.866656 178.5754547 14.036505 176.671524 14.8427289"/>
  <path class="st6" d="M183.4149017,14.8365434v.3094244h4.6635437v-.3094244l-1.7630157-.8701906,1.8094788-4.935256h5.0334625l1.7162476,4.9369144-1.7835236.8689842v.3089724h5.4474487v-.3100281l-1.6721954-.8362465L191.8871918.1119421h-1.0644989l-5.7168884,13.8900151s-1.6909027.8345871-1.6909027.8345861ZM190.8063965,2.001077l.12854.4442983c.2486267.8597813.2923737,1.0115516.6469116,2.0307975l.0006104.0024137,1.2989502,3.9433165h-4.5138855l2.4388885-6.420826h-.0000153Z"/>
  <polygon class="st13" points="214.6262207 .2238841 209.8507233 .2238841 209.8507233 .5271233 211.7546387 1.3333474 211.7546387 11.5519049 203.2352905 .2238841 199.7041321 .2238841 199.7041321 .5260672 201.65271 1.3322912 201.65271 14.0375607 199.7041321 14.8437846 199.7041321 15.1459678 204.5019531 15.1459678 204.5019531 14.8431819 202.5756989 14.0369571 202.5756989 2.3340366 212.2380219 15.3701537 212.6999664 15.3701537 212.6999664 1.3328947 214.6262207 .5266707 214.6262207 .2238841"/>
  <path class="st9" d="M217.1752319,15.0380996c.9217834.2047243,1.9645691.3320541,2.720108.3320541,1.3695526,0,2.5438843-.3675079,3.3965759-1.0626955.8566132-.7028809,1.3095093-1.7150364,1.3095093-2.9267864,0-.8792429-.2344513-1.7118683-.6432953-2.2845526-.380188-.5701199-.6194458-.8268929-2.0173645-1.7059846l-2.4204865-1.5689988c-1.0168304-.6932259-1.9745178-1.3461709-1.9745178-2.7277949,0-1.5741282,1.1673889-2.3722055,3.4696045-2.3722055.4477692,0,.6508331.0196125,1.2533875.0779973l.2220764.0214229,1.0711365,2.7229674h.5913849V.576758l-1.5554199-.3112351c-.8119507-.1763615-1.6374969-.2655229-2.4560852-.2655229-2.5336304,0-4.2356873,1.5490846-4.2356873,3.8546076,0,.7768052.172287,1.4341252.5123444,1.9540069.3786774.6309185.7464752.9608607,1.9715118,1.7699513l2.2509155,1.5002041c1.077179.7181187,2.0071106,1.3381748,2.0071106,2.8619146,0,.8391123-.3481903,1.559494-.9806213,2.0280819-.6025543.40975-1.2739105.5680075-2.3993683.5680075-.6125183,0-1.1384277-.0420914-1.7050781-.1366835l-.0856934-.0143318-1.1136932-2.7833138h-.5696716v3.0839882c.2377625.0585356.4103546.1045494.5787201.1495075.2250977.0600443.4429474.1181278.802597.2021589Z"/>
</svg>