<?xml version="1.0" encoding="UTF-8"?>
<svg id="Layer_2" xmlns="http://www.w3.org/2000/svg" width="225.585243" height="15.3701534" version="1.1" xmlns:xlink="http://www.w3.org/1999/xlink" viewBox="0 0 225.585243 15.3701534">
  <!-- Generator: Adobe Illustrator 29.2.1, SVG Export Plug-In . SVG Version: 2.1.0 Build 116)  -->
  <defs>
    <style>
      .st0 {
        fill: url(#linear-gradient2);
      }

      .st1 {
        fill: url(#linear-gradient10);
      }

      .st2 {
        fill: url(#linear-gradient1);
      }

      .st3 {
        fill: url(#linear-gradient9);
      }

      .st4 {
        fill: url(#linear-gradient8);
      }

      .st5 {
        fill: url(#linear-gradient11);
      }

      .st6 {
        fill: url(#linear-gradient12);
      }

      .st7 {
        fill: url(#linear-gradient7);
      }

      .st8 {
        fill: url(#linear-gradient4);
      }

      .st9 {
        fill: url(#linear-gradient14);
      }

      .st10 {
        fill: url(#linear-gradient5);
      }

      .st11 {
        fill: url(#linear-gradient3);
      }

      .st12 {
        fill: url(#linear-gradient6);
      }

      .st13 {
        fill: url(#linear-gradient13);
      }

      .st14 {
        fill: url(#linear-gradient);
      }
    </style>
    <linearGradient id="linear-gradient" x1="8.8275042" y1="-775.3701534" x2="8.8275042" y2="-760.2238841" gradientTransform="translate(0 -760) scale(1 -1)" gradientUnits="userSpaceOnUse">
      <stop offset=".000001" stop-color="#e7e9e9"/>
      <stop offset=".5685871" stop-color="#f9fafe"/>
      <stop offset="1" stop-color="#f0eee4"/>
    </linearGradient>
    <linearGradient id="linear-gradient1" x1="24.513781" y1="-775.1459675" x2="24.513781" y2="-760.2238841" gradientTransform="translate(0 -760) scale(1 -1)" gradientUnits="userSpaceOnUse">
      <stop offset=".000001" stop-color="#e7e9e9"/>
      <stop offset=".5685871" stop-color="#f9fafe"/>
      <stop offset="1" stop-color="#f0eee4"/>
    </linearGradient>
    <linearGradient id="linear-gradient2" x1="39.2179159" y1="-775.3701534" x2="39.2179159" y2="-760.2238841" gradientTransform="translate(0 -760) scale(1 -1)" gradientUnits="userSpaceOnUse">
      <stop offset=".000001" stop-color="#e7e9e9"/>
      <stop offset=".5685871" stop-color="#f9fafe"/>
      <stop offset="1" stop-color="#f0eee4"/>
    </linearGradient>
    <linearGradient id="linear-gradient3" x1="55.3998561" y1="-775.3701534" x2="55.3998561" y2="-760.2238841" gradientTransform="translate(0 -760) scale(1 -1)" gradientUnits="userSpaceOnUse">
      <stop offset=".000001" stop-color="#e7e9e9"/>
      <stop offset=".5685871" stop-color="#f9fafe"/>
      <stop offset="1" stop-color="#f0eee4"/>
    </linearGradient>
    <linearGradient id="linear-gradient4" x1="71.3690328" y1="-775.5044241" x2="71.3690328" y2="-760.0000007" gradientTransform="translate(0 -760) scale(1 -1)" gradientUnits="userSpaceOnUse">
      <stop offset=".000001" stop-color="#e7e9e9"/>
      <stop offset=".5685871" stop-color="#f9fafe"/>
      <stop offset="1" stop-color="#f0eee4"/>
    </linearGradient>
    <linearGradient id="linear-gradient5" x1="93.440302" y1="-775.1459675" x2="93.440302" y2="-760.2238841" gradientTransform="translate(0 -760) scale(1 -1)" gradientUnits="userSpaceOnUse">
      <stop offset=".000001" stop-color="#e7e9e9"/>
      <stop offset=".5685871" stop-color="#f9fafe"/>
      <stop offset="1" stop-color="#f0eee4"/>
    </linearGradient>
    <linearGradient id="linear-gradient6" x1="107.6870286" y1="-775.1459675" x2="107.6870286" y2="-760.2238841" gradientTransform="translate(0 -760) scale(1 -1)" gradientUnits="userSpaceOnUse">
      <stop offset=".000001" stop-color="#e7e9e9"/>
      <stop offset=".5685871" stop-color="#f9fafe"/>
      <stop offset="1" stop-color="#f0eee4"/>
    </linearGradient>
    <linearGradient id="linear-gradient7" x1="122.3927903" y1="-775.3701534" x2="122.3927903" y2="-760.2238841" gradientTransform="translate(0 -760) scale(1 -1)" gradientUnits="userSpaceOnUse">
      <stop offset=".000001" stop-color="#e7e9e9"/>
      <stop offset=".5685871" stop-color="#f9fafe"/>
      <stop offset="1" stop-color="#f0eee4"/>
    </linearGradient>
    <linearGradient id="linear-gradient8" x1="136.1894455" y1="-775.3701534" x2="136.1894455" y2="-760" gradientTransform="translate(0 -760) scale(1 -1)" gradientUnits="userSpaceOnUse">
      <stop offset=".000001" stop-color="#e7e9e9"/>
      <stop offset=".5685871" stop-color="#f9fafe"/>
      <stop offset="1" stop-color="#f0eee4"/>
    </linearGradient>
    <linearGradient id="linear-gradient9" x1="148.038661" y1="-775.1459675" x2="148.038661" y2="-760.2238841" gradientTransform="translate(0 -760) scale(1 -1)" gradientUnits="userSpaceOnUse">
      <stop offset=".000001" stop-color="#e7e9e9"/>
      <stop offset=".5685871" stop-color="#f9fafe"/>
      <stop offset="1" stop-color="#f0eee4"/>
    </linearGradient>
    <linearGradient id="linear-gradient10" x1="160.2944488" y1="-775.1459675" x2="160.2944488" y2="-760.2238841" gradientTransform="translate(0 -760) scale(1 -1)" gradientUnits="userSpaceOnUse">
      <stop offset=".000001" stop-color="#e7e9e9"/>
      <stop offset=".5685871" stop-color="#f9fafe"/>
      <stop offset="1" stop-color="#f0eee4"/>
    </linearGradient>
    <linearGradient id="linear-gradient11" x1="175.0846747" y1="-775.3701534" x2="175.0846747" y2="-760.2238841" gradientTransform="translate(0 -760) scale(1 -1)" gradientUnits="userSpaceOnUse">
      <stop offset=".000001" stop-color="#e7e9e9"/>
      <stop offset=".5685871" stop-color="#f9fafe"/>
      <stop offset="1" stop-color="#f0eee4"/>
    </linearGradient>
    <linearGradient id="linear-gradient12" x1="191.72896" y1="-775.1459675" x2="191.72896" y2="-760.1119421" gradientTransform="translate(0 -760) scale(1 -1)" gradientUnits="userSpaceOnUse">
      <stop offset=".000001" stop-color="#e7e9e9"/>
      <stop offset=".5685871" stop-color="#f9fafe"/>
      <stop offset="1" stop-color="#f0eee4"/>
    </linearGradient>
    <linearGradient id="linear-gradient13" x1="207.3828682" y1="-775.3701534" x2="207.3828682" y2="-760.2238841" gradientTransform="translate(0 -760) scale(1 -1)" gradientUnits="userSpaceOnUse">
      <stop offset=".000001" stop-color="#e7e9e9"/>
      <stop offset=".5685871" stop-color="#f9fafe"/>
      <stop offset="1" stop-color="#f0eee4"/>
    </linearGradient>
    <linearGradient id="linear-gradient14" x1="221.1814878" y1="-775.3701534" x2="221.1814878" y2="-760" gradientTransform="translate(0 -760) scale(1 -1)" gradientUnits="userSpaceOnUse">
      <stop offset=".000001" stop-color="#e7e9e9"/>
      <stop offset=".5685871" stop-color="#f9fafe"/>
      <stop offset="1" stop-color="#f0eee4"/>
    </linearGradient>
  </defs>
  <polygon class="st14" points="11.9612026 14.8427286 11.9612026 15.1459675 17.6550083 15.1459675 17.6550083 14.8437843 15.7064323 14.0375605 15.7064323 1.3322912 17.6550083 .5260672 17.6550083 .2238841 13.5686712 .2238841 8.8716326 11.9319344 4.2204561 .2238841 0 .2238841 0 .5265198 1.9265496 1.3327438 1.9265496 14.0371084 0 14.8433323 0 15.1459675 4.7981191 15.1459675 4.7981191 14.8437843 2.8492415 14.0375605 2.8492415 1.8568498 8.1934929 15.3701534 8.454339 15.3701534 13.8648205 1.8666559 13.8648205 14.0365047 11.9612026 14.8427286"/>
  <polygon class="st2" points="29.4728731 11.9609003 28.0840067 14.42453 22.8444571 14.42453 22.8444571 7.8887453 27.2270922 7.8887453 27.9886603 9.9046068 28.4216437 9.9046068 28.4216437 5.2187319 27.9895663 5.2187319 27.2279982 7.2795515 22.8444571 7.2795515 22.8444571 .833078 27.9841341 .833078 29.0368723 3.3193376 29.5416674 3.3193376 29.5416674 .2238841 19.0544199 .2238841 19.0544199 .5262181 21.0029959 1.3322912 21.0029959 14.0375605 19.0544199 14.8436337 19.0544199 15.1459675 29.6463675 15.1459675 29.9731421 11.9609003 29.4728731 11.9609003"/>
  <polygon class="st0" points="46.6789574 .2238841 41.9034676 .2238841 41.9034676 .5271233 43.8073906 1.3333474 43.8073906 11.5519047 35.2880272 .2238841 31.7568745 .2238841 31.7568745 .5260672 33.7054505 1.3322912 33.7054505 14.0375605 31.7568745 14.8437843 31.7568745 15.1459675 36.5546898 15.1459675 36.5546898 14.8431816 34.6284432 14.0369568 34.6284432 2.3340366 44.2907624 15.3701534 44.7527108 15.3701534 44.7527108 1.3328947 46.6789574 .5266707 46.6789574 .2238841"/>
  <polygon class="st11" points="62.8610473 .2238841 58.0855613 .2238841 58.0855613 .5271233 59.9891792 1.3333474 59.9891792 11.5519047 51.4701171 .2238841 47.938665 .2238841 47.938665 .5260672 49.8875404 1.3322912 49.8875404 14.0375605 47.938665 14.8437843 47.938665 15.1459675 52.7367835 15.1459675 52.7367835 14.8431816 50.8105331 14.0369568 50.8105331 2.3340366 60.4725509 15.3701534 60.9348007 15.3701534 60.9348007 1.3328947 62.8610473 .5266707 62.8610473 .2238841"/>
  <path class="st8" d="M64.4791651,8.1551733c0,4.4645557,2.6120796,7.3492508,6.6546669,7.3492508,4.1952591,0,7.1250687-3.3075705,7.1250687-8.0435324C78.2589006,2.9285977,75.6202669.0000007,71.5369463.0000007,66.6878328.0000007,64.4791689,4.227397,64.4791651,8.1551733ZM76.1935472,7.8193474c0,4.2302628-1.8803864,6.9636402-4.7908783,6.9636402-2.9964828,0-4.8581619-2.7369976-4.8581619-7.1428671,0-1.6231594.3421631-6.918983,4.7462234-6.918983,3.6147308,0,4.9028168,3.6667805,4.9028168,7.0982099Z"/>
  <polygon class="st10" points="100.901495 .5259164 100.901495 .2238841 95.2075406 .2238841 95.2075406 .5250112 97.156416 1.3089072 97.156416 6.8987675 89.7691479 6.8987675 89.7691479 1.3098123 91.673071 .5259164 91.673071 .2238841 85.9791089 .2238841 85.9791089 .5250112 87.9279919 1.3089072 87.9279919 14.0375605 85.9791089 14.8437843 85.9791089 15.1459675 91.673071 15.1459675 91.673071 14.8427286 89.7691479 14.0365047 89.7691479 7.776803 97.156416 7.776803 97.156416 14.0375605 95.2075406 14.8437843 95.2075406 15.1459675 100.901495 15.1459675 100.901495 14.8427286 98.9975796 14.0365047 98.9975796 1.3098123 100.901495 .5259164"/>
  <polygon class="st12" points="112.645971 11.9609003 111.2574059 14.42453 106.0178582 14.42453 106.0178582 7.8887453 110.4004952 7.8887453 111.1620614 9.9046068 111.5950448 9.9046068 111.5950448 5.2187319 111.1629693 5.2187319 110.4013955 7.2795515 106.0178582 7.2795515 106.0178582 .833078 111.1575371 .833078 112.2102715 3.3193376 112.7150704 3.3193376 112.7150704 .2238841 102.2278191 .2238841 102.2278191 .5262181 104.176397 1.3322912 104.176397 14.0375605 102.2278191 14.8436337 102.2278191 15.1459675 112.8197686 15.1459675 113.146238 11.9609003 112.645971 11.9609003"/>
  <polygon class="st7" points="129.8538308 .2238841 125.0783487 .2238841 125.0783487 .5271233 126.9822641 1.3333474 126.9822641 11.5519047 118.4629083 .2238841 114.9317498 .2238841 114.9317498 .5260672 116.8803277 1.3322912 116.8803277 14.0375605 114.9317498 14.8437843 114.9317498 15.1459675 119.7295709 15.1459675 119.7295709 14.8431816 117.8033242 14.0369568 117.8033242 2.3340366 127.4656396 15.3701534 127.9275918 15.3701534 127.9275918 1.3328947 129.8538308 .5266707 129.8538308 .2238841"/>
  <path class="st4" d="M133.1670075,15.0380993c.9217834.2047243,1.9645691.3320541,2.720108.3320541,1.3695526,0,2.5438843-.3675079,3.3965759-1.0626955.8566132-.7028809,1.3095093-1.7150364,1.3095093-2.9267864,0-.8792429-.2344513-1.7118683-.6432953-2.2845526-.380188-.5701199-.6194458-.8268929-2.0173645-1.7059846l-2.4204865-1.5689988c-1.0168304-.6932259-1.9745178-1.3461709-1.9745178-2.7277949,0-1.5741282,1.1673889-2.3722055,3.4696045-2.3722055.4477692,0,.6508331.0196125,1.2533875.0779973l.2220764.0214229,1.0711365,2.7229674h.5913849V.576758l-1.5554199-.3112351C137.7777558.0891614,136.9522095,0,136.1336212,0,133.5999909,0,131.897934,1.5490845,131.897934,3.8546076c0,.7768054.172287,1.4341249.5123444,1.9540071.3786774.6309185.7464752.9608607,1.9715118,1.7699513l2.2509155,1.5002036c1.077179.7181187,2.0071106,1.3381748,2.0071106,2.8619146,0,.8391123-.3481903,1.559494-.9806213,2.0280819-.6025543.40975-1.2739105.5680075-2.3993683.5680075-.6125183,0-1.1384277-.0420914-1.7050781-.1366835l-.0856934-.0143318-1.1136932-2.7833138h-.5696716v3.0839882c.2377625.0585356.4103546.1045494.5787201.1495075.2250977.0600443.4429474.1181278.802597.2021589Z"/>
  <polygon class="st3" points="152.9976072 11.9609003 151.6090421 14.42453 146.3694944 14.42453 146.3694944 7.8887453 150.7521238 7.8887453 151.5136899 9.9046068 151.9466733 9.9046068 151.9466733 5.2187319 151.5145902 5.2187319 150.7530241 7.2795515 146.3694944 7.2795515 146.3694944 .833078 151.5091581 .833078 152.5619077 3.3193376 153.066699 3.3193376 153.066699 .2238841 142.5794553 .2238841 142.5794553 .5262181 144.5280332 1.3322912 144.5280332 14.0375605 142.5794553 14.8436337 142.5794553 15.1459675 153.1714048 15.1459675 153.4978666 11.9609003 152.9976072 11.9609003"/>
  <polygon class="st1" points="164.7869185 11.6024446 163.3533858 14.42453 159.072441 14.42453 159.072441 1.3333474 160.9760512 .5271233 160.9760512 .2238841 155.2824019 .2238841 155.2824019 .5262181 157.2309798 1.3322912 157.2309798 14.0375605 155.2824019 14.8436337 155.2824019 15.1459675 164.9766921 15.1459675 165.3064956 11.6024446 164.7869185 11.6024446"/>
  <polygon class="st5" points="178.2181357 14.8427286 178.2181357 15.1459675 183.9121054 15.1459675 183.9121054 14.8437843 181.9632224 14.0375605 181.9632224 1.3322912 183.9121054 .5260672 183.9121054 .2238841 179.825466 .2238841 175.1287192 11.9319344 170.4772452 .2238841 166.257244 .2238841 166.257244 .5266707 168.183483 1.3328947 168.183483 14.0369568 166.257244 14.8431816 166.257244 15.1459675 171.055065 15.1459675 171.055065 14.8437843 169.1064871 14.0375605 169.1064871 1.8568498 174.4504355 15.3701534 174.7114371 15.3701534 180.1220663 1.8666559 180.1220663 14.0365047 178.2181357 14.8427286"/>
  <path class="st6" d="M184.167139,14.8365431v.3094244h4.6635437v-.3094244l-1.7630157-.8701906,1.8094788-4.935256h5.0334625l1.7162476,4.9369144-1.7835236.8689842v.3089724h5.4474487v-.3100281l-1.6721954-.8362465L192.6394291.1119421h-1.0644989l-5.7168884,13.8900148s-1.6909027.8345871-1.6909027.8345861ZM191.5586338,2.0010769l.12854.4442983c.2486267.8597813.2923737,1.0115516.6469116,2.0307972l.0006104.0024137,1.2989502,3.9433165h-4.5138855l2.4388885-6.420826s-.0000153,0-.0000153.0000002Z"/>
  <polygon class="st13" points="214.8439125 .2238841 210.0684151 .2238841 210.0684151 .5271233 211.9723305 1.3333474 211.9723305 11.5519047 203.4529824 .2238841 199.9218239 .2238841 199.9218239 .5260672 201.8704018 1.3322912 201.8704018 14.0375605 199.9218239 14.8437843 199.9218239 15.1459675 204.719645 15.1459675 204.719645 14.8431816 202.7933907 14.0369568 202.7933907 2.3340366 212.4557137 15.3701534 212.9176583 15.3701534 212.9176583 1.3328947 214.8439125 .5266707 214.8439125 .2238841"/>
  <path class="st9" d="M218.1590498,15.0380993c.9217834.2047243,1.9645691.3320541,2.720108.3320541,1.3695526,0,2.5438843-.3675079,3.3965759-1.0626955.8566132-.7028809,1.3095093-1.7150364,1.3095093-2.9267864,0-.8792429-.2344513-1.7118683-.6432953-2.2845526-.380188-.5701199-.6194458-.8268929-2.0173645-1.7059846l-2.4204865-1.5689988c-1.0168304-.6932259-1.9745178-1.3461709-1.9745178-2.7277949,0-1.5741282,1.1673889-2.3722055,3.4696045-2.3722055.4477692,0,.6508331.0196125,1.2533875.0779973l.2220764.0214229,1.0711365,2.7229674h.5913849V.576758l-1.5554199-.3112351C222.7697981.0891614,221.9442518,0,221.1256635,0,218.5920332,0,216.8899763,1.5490845,216.8899763,3.8546076c0,.7768054.172287,1.4341249.5123444,1.9540071.3786774.6309185.7464752.9608607,1.9715118,1.7699513l2.2509155,1.5002036c1.077179.7181187,2.0071106,1.3381748,2.0071106,2.8619146,0,.8391123-.3481903,1.559494-.9806213,2.0280819-.6025543.40975-1.2739105.5680075-2.3993683.5680075-.6125183,0-1.1384277-.0420914-1.7050781-.1366835l-.0856934-.0143318-1.1136932-2.7833138h-.5696716v3.0839882c.2377625.0585356.4103546.1045494.5787201.1495075.2250977.0600443.4429474.1181278.802597.2021589Z"/>
</svg>