<?xml version="1.0" encoding="UTF-8"?>
<svg id="Layer_2" xmlns="http://www.w3.org/2000/svg" width="224.5978851" height="33.7826653" version="1.1" xmlns:xlink="http://www.w3.org/1999/xlink" viewBox="0 0 224.5978851 33.7826653">
  <!-- Generator: Adobe Illustrator 29.2.1, SVG Export Plug-In . SVG Version: 2.1.0 Build 116)  -->
  <defs>
    <style>
      .st0 {
        fill: url(#linear-gradient2);
      }

      .st1 {
        fill: url(#linear-gradient10);
      }

      .st2 {
        fill: #fff;
      }

      .st3 {
        fill: url(#linear-gradient1);
      }

      .st4 {
        fill: url(#linear-gradient9);
      }

      .st5 {
        fill: url(#linear-gradient8);
      }

      .st6 {
        fill: url(#linear-gradient11);
      }

      .st7 {
        fill: url(#linear-gradient16);
      }

      .st8 {
        fill: url(#linear-gradient12);
      }

      .st9 {
        fill: url(#linear-gradient7);
      }

      .st10 {
        fill: url(#linear-gradient4);
      }

      .st11 {
        fill: url(#linear-gradient14);
      }

      .st12 {
        fill: url(#linear-gradient5);
      }

      .st13 {
        fill: url(#linear-gradient3);
      }

      .st14 {
        fill: url(#linear-gradient15);
      }

      .st15 {
        fill: url(#linear-gradient6);
      }

      .st16 {
        fill: url(#linear-gradient13);
      }

      .st17 {
        fill: url(#linear-gradient);
      }
    </style>
    <linearGradient id="linear-gradient" x1="8.8275042" y1="792.4378233" x2="8.8275042" y2="777.2915537" gradientTransform="translate(0 -777)" gradientUnits="userSpaceOnUse">
      <stop offset=".000001" stop-color="#e7e9e9"/>
      <stop offset=".5685871" stop-color="#f9fafe"/>
      <stop offset="1" stop-color="#f0eee4"/>
    </linearGradient>
    <linearGradient id="linear-gradient1" x1="24.6544027" y1="792.2136374" x2="24.6544027" y2="777.2915537" gradientTransform="translate(0 -777)" gradientUnits="userSpaceOnUse">
      <stop offset=".000001" stop-color="#e7e9e9"/>
      <stop offset=".5685871" stop-color="#f9fafe"/>
      <stop offset="1" stop-color="#f0eee4"/>
    </linearGradient>
    <linearGradient id="linear-gradient2" x1="39.1507444" y1="792.4378233" x2="39.1507444" y2="777.2915537" gradientTransform="translate(0 -777)" gradientUnits="userSpaceOnUse">
      <stop offset=".000001" stop-color="#e7e9e9"/>
      <stop offset=".5685871" stop-color="#f9fafe"/>
      <stop offset="1" stop-color="#f0eee4"/>
    </linearGradient>
    <linearGradient id="linear-gradient3" x1="55.4603367" y1="792.4378233" x2="55.4603367" y2="777.2915537" gradientTransform="translate(0 -777)" gradientUnits="userSpaceOnUse">
      <stop offset=".000001" stop-color="#e7e9e9"/>
      <stop offset=".5685871" stop-color="#f9fafe"/>
      <stop offset="1" stop-color="#f0eee4"/>
    </linearGradient>
    <linearGradient id="linear-gradient4" x1="70.6722355" y1="792.572094" x2="70.6722355" y2="777.0676703" gradientTransform="translate(0 -777)" gradientUnits="userSpaceOnUse">
      <stop offset=".000001" stop-color="#e7e9e9"/>
      <stop offset=".5685871" stop-color="#f9fafe"/>
      <stop offset="1" stop-color="#f0eee4"/>
    </linearGradient>
    <linearGradient id="linear-gradient5" x1="93.0387611" y1="792.2136374" x2="93.0387611" y2="777.2915537" gradientTransform="translate(0 -777)" gradientUnits="userSpaceOnUse">
      <stop offset=".000001" stop-color="#e7e9e9"/>
      <stop offset=".5685871" stop-color="#f9fafe"/>
      <stop offset="1" stop-color="#f0eee4"/>
    </linearGradient>
    <linearGradient id="linear-gradient6" x1="107.4967842" y1="792.2136374" x2="107.4967842" y2="777.2915537" gradientTransform="translate(0 -777)" gradientUnits="userSpaceOnUse">
      <stop offset=".000001" stop-color="#e7e9e9"/>
      <stop offset=".5685871" stop-color="#f9fafe"/>
      <stop offset="1" stop-color="#f0eee4"/>
    </linearGradient>
    <linearGradient id="linear-gradient7" x1="121.9932747" y1="792.4378233" x2="121.9932747" y2="777.2915537" gradientTransform="translate(0 -777)" gradientUnits="userSpaceOnUse">
      <stop offset=".000001" stop-color="#e7e9e9"/>
      <stop offset=".5685871" stop-color="#f9fafe"/>
      <stop offset="1" stop-color="#f0eee4"/>
    </linearGradient>
    <linearGradient id="linear-gradient8" x1="135.0254745" y1="792.4378233" x2="135.0254745" y2="777.0676696" gradientTransform="translate(0 -777)" gradientUnits="userSpaceOnUse">
      <stop offset=".000001" stop-color="#e7e9e9"/>
      <stop offset=".5685871" stop-color="#f9fafe"/>
      <stop offset="1" stop-color="#f0eee4"/>
    </linearGradient>
    <linearGradient id="linear-gradient9" x1="146.4592514" y1="792.2136374" x2="146.4592514" y2="777.2915537" gradientTransform="translate(0 -777)" gradientUnits="userSpaceOnUse">
      <stop offset=".000001" stop-color="#e7e9e9"/>
      <stop offset=".5685871" stop-color="#f9fafe"/>
      <stop offset="1" stop-color="#f0eee4"/>
    </linearGradient>
    <linearGradient id="linear-gradient10" x1="158.506752" y1="792.2136374" x2="158.506752" y2="777.2915537" gradientTransform="translate(0 -777)" gradientUnits="userSpaceOnUse">
      <stop offset=".000001" stop-color="#e7e9e9"/>
      <stop offset=".5685871" stop-color="#f9fafe"/>
      <stop offset="1" stop-color="#f0eee4"/>
    </linearGradient>
    <linearGradient id="linear-gradient11" x1="173.538063" y1="792.4378233" x2="173.538063" y2="777.2915537" gradientTransform="translate(0 -777)" gradientUnits="userSpaceOnUse">
      <stop offset=".000001" stop-color="#e7e9e9"/>
      <stop offset=".5685871" stop-color="#f9fafe"/>
      <stop offset="1" stop-color="#f0eee4"/>
    </linearGradient>
    <linearGradient id="linear-gradient12" x1="190.9767227" y1="792.2136374" x2="190.9767227" y2="777.1796117" gradientTransform="translate(0 -777)" gradientUnits="userSpaceOnUse">
      <stop offset=".000001" stop-color="#e7e9e9"/>
      <stop offset=".5685871" stop-color="#f9fafe"/>
      <stop offset="1" stop-color="#f0eee4"/>
    </linearGradient>
    <linearGradient id="linear-gradient13" x1="207.1651764" y1="792.4378233" x2="207.1651764" y2="777.2915537" gradientTransform="translate(0 -777)" gradientUnits="userSpaceOnUse">
      <stop offset=".000001" stop-color="#e7e9e9"/>
      <stop offset=".5685871" stop-color="#f9fafe"/>
      <stop offset="1" stop-color="#f0eee4"/>
    </linearGradient>
    <linearGradient id="linear-gradient14" x1="220.19767" y1="792.4378233" x2="220.19767" y2="777.0676696" gradientTransform="translate(0 -777)" gradientUnits="userSpaceOnUse">
      <stop offset=".000001" stop-color="#e7e9e9"/>
      <stop offset=".5685871" stop-color="#f9fafe"/>
      <stop offset="1" stop-color="#f0eee4"/>
    </linearGradient>
    <linearGradient id="linear-gradient15" x1="0" y1="804.8090324" x2="14.0435047" y2="804.8090324" gradientTransform="translate(0 -777)" gradientUnits="userSpaceOnUse">
      <stop offset=".0000005" stop-color="#a5a5a8"/>
      <stop offset="1" stop-color="#f2f3f7"/>
    </linearGradient>
    <linearGradient id="linear-gradient16" x1="210.5579224" y1="804.8090324" x2="224.6014252" y2="804.8090324" gradientTransform="translate(0 -777)" gradientUnits="userSpaceOnUse">
      <stop offset="0" stop-color="#f2f3f7"/>
      <stop offset=".9999995" stop-color="#a5a5a8"/>
    </linearGradient>
  </defs>
  <g>
    <polygon class="st17" points="11.9612026 14.9103985 11.9612026 15.2136374 17.6550083 15.2136374 17.6550083 14.9114542 15.7064323 14.1052303 15.7064323 1.3999608 17.6550083 .5937368 17.6550083 .2915537 13.5686712 .2915537 8.8716326 11.9996042 4.2204561 .2915537 0 .2915537 0 .5941894 1.9265496 1.4004134 1.9265496 14.1047783 0 14.9110022 0 15.2136374 4.7981191 15.2136374 4.7981191 14.9114542 2.8492415 14.1052303 2.8492415 1.9245194 8.1934929 15.4378233 8.454339 15.4378233 13.8648205 1.9343256 13.8648205 14.1041746 11.9612026 14.9103985"/>
    <polygon class="st3" points="29.6134949 12.0285702 28.2246284 14.4921999 22.9850788 14.4921999 22.9850788 7.9564147 27.3677139 7.9564147 28.129282 9.9722767 28.5622654 9.9722767 28.5622654 5.2864013 28.130188 5.2864013 27.3686199 7.3472209 22.9850788 7.3472209 22.9850788 .9007476 28.1247559 .9007476 29.177494 3.3870072 29.6822891 3.3870072 29.6822891 .2915537 19.1950417 .2915537 19.1950417 .5938877 21.1436176 1.3999608 21.1436176 14.1052303 19.1950417 14.9113035 19.1950417 15.2136374 29.7869892 15.2136374 30.1137638 12.0285702 29.6134949 12.0285702"/>
    <polygon class="st0" points="46.6117859 .2915537 41.8362961 .2915537 41.8362961 .5947929 43.7402191 1.401017 43.7402191 11.6195745 35.2208557 .2915537 31.689703 .2915537 31.689703 .5937368 33.638279 1.3999608 33.638279 14.1052303 31.689703 14.9114542 31.689703 15.2136374 36.4875183 15.2136374 36.4875183 14.9108515 34.5612717 14.1046267 34.5612717 2.4017062 44.2235909 15.4378233 44.6855392 15.4378233 44.6855392 1.4005643 46.6117859 .5943403 46.6117859 .2915537"/>
    <polygon class="st13" points="62.9215279 .2915537 58.1460419 .2915537 58.1460419 .5947929 60.0496597 1.401017 60.0496597 11.6195745 51.5305977 .2915537 47.9991455 .2915537 47.9991455 .5937368 49.9480209 1.3999608 49.9480209 14.1052303 47.9991455 14.9114542 47.9991455 15.2136374 52.7972641 15.2136374 52.7972641 14.9108515 50.8710136 14.1046267 50.8710136 2.4017062 60.5330315 15.4378233 60.9952812 15.4378233 60.9952812 1.4005643 62.9215279 .5943403 62.9215279 .2915537"/>
    <path class="st10" d="M63.7823677,8.2228432c0,4.4645557,2.6120796,7.3492508,6.6546669,7.3492508,4.1952591,0,7.1250687-3.3075705,7.1250687-8.0435324,0-4.5322943-2.6386337-7.4608912-6.7219543-7.4608912-4.8491135,0-7.0577774,4.227396-7.0577812,8.1551728ZM75.4967499,7.8870168c0,4.2302623-1.8803864,6.9636397-4.7908783,6.9636397-2.9964828,0-4.8581619-2.7369976-4.8581619-7.1428671,0-1.6231594.3421631-6.918983,4.7462234-6.918983,3.6147308,0,4.9028168,3.6667805,4.9028168,7.0982103Z"/>
    <polygon class="st12" points="100.4999542 .593586 100.4999542 .2915537 94.8059998 .2915537 94.8059998 .5926808 96.7548752 1.3765767 96.7548752 6.9664369 89.3676071 6.9664369 89.3676071 1.3774819 91.2715302 .593586 91.2715302 .2915537 85.5775681 .2915537 85.5775681 .5926808 87.5264511 1.3765767 87.5264511 14.1052303 85.5775681 14.9114542 85.5775681 15.2136374 91.2715302 15.2136374 91.2715302 14.9103985 89.3676071 14.1041746 89.3676071 7.8444724 96.7548752 7.8444724 96.7548752 14.1052303 94.8059998 14.9114542 94.8059998 15.2136374 100.4999542 15.2136374 100.4999542 14.9103985 98.5960388 14.1041746 98.5960388 1.3774819 100.4999542 .593586"/>
    <polygon class="st15" points="112.4557266 12.0285702 111.0671616 14.4921999 105.8276138 14.4921999 105.8276138 7.9564147 110.2102509 7.9564147 110.971817 9.9722767 111.4048004 9.9722767 111.4048004 5.2864013 110.9727249 5.2864013 110.2111511 7.3472209 105.8276138 7.3472209 105.8276138 .9007476 110.9672928 .9007476 112.0200272 3.3870072 112.524826 3.3870072 112.524826 .2915537 102.0375748 .2915537 102.0375748 .5938877 103.9861526 1.3999608 103.9861526 14.1052303 102.0375748 14.9113035 102.0375748 15.2136374 112.6295242 15.2136374 112.9559937 12.0285702 112.4557266 12.0285702"/>
    <polygon class="st9" points="129.4543152 .2915537 124.678833 .2915537 124.678833 .5947929 126.5827484 1.401017 126.5827484 11.6195745 118.0633926 .2915537 114.5322342 .2915537 114.5322342 .5937368 116.4808121 1.3999608 116.4808121 14.1052303 114.5322342 14.9114542 114.5322342 15.2136374 119.3300552 15.2136374 119.3300552 14.9108515 117.4038086 14.1046267 117.4038086 2.4017062 127.066124 15.4378233 127.5280762 15.4378233 127.5280762 1.4005643 129.4543152 .5943403 129.4543152 .2915537"/>
    <path class="st5" d="M132.0030365,15.1057692c.9217834.2047243,1.9645691.3320541,2.720108.3320541,1.3695526,0,2.5438843-.3675079,3.3965759-1.0626955.8566132-.7028809,1.3095093-1.7150364,1.3095093-2.9267864,0-.8792429-.2344513-1.7118683-.6432953-2.2845526-.380188-.5701199-.6194458-.8268929-2.0173645-1.7059846l-2.4204865-1.5689988c-1.0168304-.6932259-1.9745178-1.3461709-1.9745178-2.7277949,0-1.5741282,1.1673889-2.3722055,3.4696045-2.3722055.4477692,0,.6508331.0196125,1.2533875.0779973l.2220764.0214229,1.0711365,2.7229674h.5913849V.6444276l-1.5554199-.3112351c-.8119507-.1763615-1.6374969-.2655229-2.4560852-.2655229-2.5336304,0-4.2356873,1.5490846-4.2356873,3.8546076,0,.7768052.172287,1.4341252.5123444,1.9540069.3786774.6309185.7464752.9608607,1.9715118,1.7699513l2.2509155,1.5002041c1.077179.7181187,2.0071106,1.3381748,2.0071106,2.8619146,0,.8391123-.3481903,1.559494-.9806213,2.0280819-.6025543.40975-1.2739105.5680075-2.3993683.5680075-.6125183,0-1.1384277-.0420914-1.7050781-.1366835l-.0856934-.0143318-1.1136932-2.7833138h-.5696716v3.0839882c.2377625.0585356.4103546.1045494.5787201.1495075.2250977.0600443.4429474.1181278.802597.2021589Z"/>
    <polygon class="st4" points="151.4181976 12.0285702 150.0296326 14.4921999 144.7900848 14.4921999 144.7900848 7.9564147 149.1727142 7.9564147 149.9342804 9.9722767 150.3672638 9.9722767 150.3672638 5.2864013 149.9351807 5.2864013 149.1736145 7.3472209 144.7900848 7.3472209 144.7900848 .9007476 149.9297485 .9007476 150.9824982 3.3870072 151.4872894 3.3870072 151.4872894 .2915537 141.0000458 .2915537 141.0000458 .5938877 142.9486237 1.3999608 142.9486237 14.1052303 141.0000458 14.9113035 141.0000458 15.2136374 151.5919952 15.2136374 151.918457 12.0285702 151.4181976 12.0285702"/>
    <polygon class="st1" points="162.9992218 11.6701145 161.5656891 14.4921999 157.2847443 14.4921999 157.2847443 1.401017 159.1883545 .5947929 159.1883545 .2915537 153.4947052 .2915537 153.4947052 .5938877 155.4432831 1.3999608 155.4432831 14.1052303 153.4947052 14.9113035 153.4947052 15.2136374 163.1889954 15.2136374 163.5187988 11.6701145 162.9992218 11.6701145"/>
    <polygon class="st6" points="176.671524 14.9103985 176.671524 15.2136374 182.3654938 15.2136374 182.3654938 14.9114542 180.4166107 14.1052303 180.4166107 1.3999608 182.3654938 .5937368 182.3654938 .2915537 178.2788544 .2915537 173.5821075 11.9996042 168.9306335 .2915537 164.7106323 .2915537 164.7106323 .5943403 166.6368713 1.4005643 166.6368713 14.1046267 164.7106323 14.9108515 164.7106323 15.2136374 169.5084534 15.2136374 169.5084534 14.9114542 167.5598755 14.1052303 167.5598755 1.9245194 172.9038239 15.4378233 173.1648254 15.4378233 178.5754547 1.9343256 178.5754547 14.1041746 176.671524 14.9103985"/>
    <path class="st8" d="M183.4149017,14.904213v.3094244h4.6635437v-.3094244l-1.7630157-.8701906,1.8094788-4.935256h5.0334625l1.7162476,4.9369144-1.7835236.8689842v.3089724h5.4474487v-.3100281l-1.6721954-.8362465L191.8871918.1796117h-1.0644989l-5.7168884,13.8900151s-1.6909027.8345871-1.6909027.8345861ZM190.8063965,2.0687466l.12854.4442983c.2486267.8597813.2923737,1.0115516.6469116,2.0307975l.0006104.0024137,1.2989502,3.9433165h-4.5138855l2.4388885-6.420826h-.0000153Z"/>
    <polygon class="st16" points="214.6262207 .2915537 209.8507233 .2915537 209.8507233 .5947929 211.7546387 1.401017 211.7546387 11.6195745 203.2352905 .2915537 199.7041321 .2915537 199.7041321 .5937368 201.65271 1.3999608 201.65271 14.1052303 199.7041321 14.9114542 199.7041321 15.2136374 204.5019531 15.2136374 204.5019531 14.9108515 202.5756989 14.1046267 202.5756989 2.4017062 212.2380219 15.4378233 212.6999664 15.4378233 212.6999664 1.4005643 214.6262207 .5943403 214.6262207 .2915537"/>
    <path class="st11" d="M217.1752319,15.1057692c.9217834.2047243,1.9645691.3320541,2.720108.3320541,1.3695526,0,2.5438843-.3675079,3.3965759-1.0626955.8566132-.7028809,1.3095093-1.7150364,1.3095093-2.9267864,0-.8792429-.2344513-1.7118683-.6432953-2.2845526-.380188-.5701199-.6194458-.8268929-2.0173645-1.7059846l-2.4204865-1.5689988c-1.0168304-.6932259-1.9745178-1.3461709-1.9745178-2.7277949,0-1.5741282,1.1673889-2.3722055,3.4696045-2.3722055.4477692,0,.6508331.0196125,1.2533875.0779973l.2220764.0214229,1.0711365,2.7229674h.5913849V.6444276l-1.5554199-.3112351c-.8119507-.1763615-1.6374969-.2655229-2.4560852-.2655229-2.5336304,0-4.2356873,1.5490846-4.2356873,3.8546076,0,.7768052.172287,1.4341252.5123444,1.9540069.3786774.6309185.7464752.9608607,1.9715118,1.7699513l2.2509155,1.5002041c1.077179.7181187,2.0071106,1.3381748,2.0071106,2.8619146,0,.8391123-.3481903,1.559494-.9806213,2.0280819-.6025543.40975-1.2739105.5680075-2.3993683.5680075-.6125183,0-1.1384277-.0420914-1.7050781-.1366835l-.0856934-.0143318-1.1136932-2.7833138h-.5696716v3.0839882c.2377625.0585356.4103546.1045494.5787201.1495075.2250977.0600443.4429474.1181278.802597.2021589Z"/>
  </g>
  <rect class="st14" y="27.5783997" width="14.0435047" height=".4612656"/>
  <g>
    <path class="st2" d="M22.3925114,30.1518059l.3774414-.7421875c.6508789.6376953,1.809082,1.1064453,3.0063477,1.1064453,1.7050781,0,2.4472656-.7158203,2.4472656-1.6142578,0-2.4990234-5.6098633-.9628906-5.6098633-4.3339844,0-1.3408203,1.0415039-2.4990234,3.3579102-2.4990234,1.0283203,0,2.0957031.2998047,2.824707.8066406l-.3256836.7685547c-.7807617-.5078125-1.6918945-.7548828-2.4990234-.7548828-1.6660156,0-2.4077148.7412109-2.4077148,1.6523438,0,2.4990234,5.6098633.9892578,5.6098633,4.3085938,0,1.3408203-1.0673828,2.4863281-3.3974609,2.4863281-1.3662109,0-2.7070312-.4814453-3.3837891-1.1845703Z"/>
    <path class="st2" d="M29.3451481,27.8344231c0-2.0429688,1.4838867-3.4746094,3.5273418-3.4746094,1.1582031,0,2.1347656.4550781,2.6811523,1.3535156l-.6899414.46875c-.4682617-.6904297-1.1972656-1.015625-1.9912109-1.015625-1.496582,0-2.590332,1.0673828-2.590332,2.6679688,0,1.6142578,1.09375,2.6689453,2.590332,2.6689453.7939453,0,1.5229492-.3125,1.9912109-1.0029297l.6899414.46875c-.5463867.8857422-1.5229492,1.3535156-2.6811523,1.3535156-2.043457,0-3.5273438-1.4443359-3.5273418-3.4882812Z"/>
    <path class="st2" d="M36.1151657,22.2514153c0-.3515625.2998047-.6513672.6772461-.6513672s.6767578.2871094.6767578.6376953c0,.3779297-.2866211.6767578-.6767578.6767578-.3774414,0-.6772461-.2988281-.6772461-.6630859ZM36.3236618,24.4115715h.9243164v6.8466797h-.9243164v-6.8466797Z"/>
    <path class="st2" d="M44.7455368,28.1215324h-5.7270508c.1040039,1.4316406,1.1972656,2.3818359,2.6943359,2.3818359.8330078,0,1.574707-.2998047,2.0952148-.8984375l.5209961.5986328c-.6118164.7294922-1.5620117,1.1191406-2.6425781,1.1191406-2.1342773,0-3.5922852-1.4570312-3.5922852-3.4882812,0-2.0302734,1.4189453-3.4746094,3.3452148-3.4746094s3.3188477,1.4189453,3.3188477,3.4746094c0,.078125-.0126953.1826172-.0126953.2871094ZM39.018486,27.4311028h4.8549805c-.1171875-1.3408203-1.09375-2.2773438-2.434082-2.2773438-1.3276367,0-2.3037109.9365234-2.4208984,2.2773438Z"/>
    <path class="st2" d="M51.9066696,27.2885246v3.9697266h-.9243164v-3.8789062c0-1.4443359-.7548828-2.1865234-2.0566406-2.1865234-1.4707031,0-2.3945312.9111328-2.3945312,2.4726562v3.5927734h-.9243164v-6.8466797h.8852539v1.2626953c.4946289-.8330078,1.418457-1.3144531,2.6030273-1.3144531,1.6660156,0,2.8115234.9628906,2.8115234,2.9287109Z"/>
    <path class="st2" d="M52.7157516,27.8344231c0-2.0429688,1.4838867-3.4746094,3.5273438-3.4746094,1.1582031,0,2.1347656.4550781,2.6811523,1.3535156l-.6899414.46875c-.4682617-.6904297-1.1972656-1.015625-1.9912109-1.015625-1.496582,0-2.590332,1.0673828-2.590332,2.6679688,0,1.6142578,1.09375,2.6689453,2.590332,2.6689453.7939453,0,1.5229492-.3125,1.9912109-1.0029297l.6899414.46875c-.5463867.8857422-1.5229492,1.3535156-2.6811523,1.3535156-2.043457,0-3.5273438-1.4443359-3.5273438-3.4882812Z"/>
    <path class="st2" d="M65.5385056,28.1215324h-5.7270508c.1040039,1.4316406,1.1972656,2.3818359,2.6943359,2.3818359.8330078,0,1.574707-.2998047,2.0952148-.8984375l.5209961.5986328c-.6118164.7294922-1.5620117,1.1191406-2.6425781,1.1191406-2.1342773,0-3.5922852-1.4570312-3.5922852-3.4882812,0-2.0302734,1.4189453-3.4746094,3.3452148-3.4746094s3.3188477,1.4189453,3.3188477,3.4746094c0,.078125-.0126953.1826172-.0126953.2871094ZM59.8114548,27.4311028h4.8549805c-.1171875-1.3408203-1.09375-2.2773438-2.434082-2.2773438-1.3276367,0-2.3037109.9365234-2.4208984,2.2773438Z"/>
    <path class="st2" d="M72.3744431,30.841259c-.3647461.3251953-.9111328.4814453-1.4448242.4814453-1.2885742,0-2.0043945-.7285156-2.0043945-1.9912109v-4.1386719h-1.2236328v-.78125h1.2236328v-1.4970703h.9238281v1.4970703h2.0825195v.78125h-2.0825195v4.0869141c0,.8066406.4165039,1.2490234,1.1845703,1.2490234.3774414,0,.7548828-.1171875,1.0151367-.3505859l.3256836.6630859Z"/>
    <path class="st2" d="M72.0765915,27.8344231c0-2.0302734,1.4838867-3.4746094,3.4882812-3.4746094s3.4750977,1.4443359,3.4750977,3.4746094c0,2.03125-1.4707031,3.4882812-3.4750977,3.4882812s-3.4882812-1.4570312-3.4882812-3.4882812ZM78.1029587,27.8344231c0-1.6005859-1.0800781-2.6679688-2.5380859-2.6679688-1.4575195,0-2.5512695,1.0673828-2.5512695,2.6679688,0,1.6015625,1.09375,2.6689453,2.5512695,2.6689453,1.4580078,0,2.5380859-1.0673828,2.5380859-2.6689453Z"/>
    <path class="st2" d="M93.5555954,27.2885246v3.9697266h-.9243164v-3.8789062c0-1.4443359-.7290039-2.1865234-1.965332-2.1865234-1.4057617,0-2.2910156.9111328-2.2910156,2.4726562v3.5927734h-.9238281v-3.8789062c0-1.4443359-.7290039-2.1865234-1.9785156-2.1865234-1.3925781,0-2.2905273.9111328-2.2905273,2.4726562v3.5927734h-.9243164v-6.8466797h.8852539v1.25c.4814453-.8203125,1.3666992-1.3017578,2.5117188-1.3017578,1.1323242,0,2.0175781.4814453,2.434082,1.4443359.4946289-.8847656,1.4707031-1.4443359,2.7070312-1.4443359,1.6660156,0,2.7597656.9628906,2.7597656,2.9287109Z"/>
    <path class="st2" d="M100.1981735,27.0150871v4.2431641h-.8852539v-1.0673828c-.4165039.703125-1.2236328,1.1318359-2.355957,1.1318359-1.5488281,0-2.4990234-.8066406-2.4990234-1.9912109,0-1.0537109.6767578-1.9394531,2.6420898-1.9394531h2.1738281v-.4160156c0-1.171875-.6640625-1.8095703-1.9394531-1.8095703-.8852539,0-1.7182617.3125-2.277832.8076172l-.4165039-.6904297c.6899414-.5859375,1.7050781-.9238281,2.7856445-.9238281,1.7700195,0,2.7724609.8847656,2.7724609,2.6552734ZM99.2738571,29.2016106v-1.1191406h-2.1474609c-1.3276367,0-1.7573242.5205078-1.7573242,1.2236328,0,.7939453.6376953,1.2880859,1.730957,1.2880859,1.0415039,0,1.8095703-.4941406,2.1738281-1.3925781Z"/>
    <path class="st2" d="M100.7206345,30.4770012l.4165039-.7285156c.546875.4296875,1.4707031.7675781,2.434082.7675781,1.3012695,0,1.8349609-.4423828,1.8349609-1.1191406,0-1.7832031-4.4379883-.3779297-4.4379883-3.0849609,0-1.1191406.9628906-1.9521484,2.7070312-1.9521484.8852539,0,1.8481445.2470703,2.4208984.6376953l-.4033203.7421875c-.5986328-.4169922-1.3149414-.5859375-2.0175781-.5859375-1.2363281,0-1.7832031.4814453-1.7832031,1.1318359,0,1.8486328,4.4384766.4560547,4.4384766,3.0849609,0,1.1845703-1.0415039,1.9521484-2.824707,1.9521484-1.1323242,0-2.2255859-.3642578-2.7851562-.8457031Z"/>
    <path class="st2" d="M110.6014938,30.841259c-.3647461.3251953-.9111328.4814453-1.4448242.4814453-1.2885742,0-2.0043945-.7285156-2.0043945-1.9912109v-4.1386719h-1.2236328v-.78125h1.2236328v-1.4970703h.9238281v1.4970703h2.0825195v.78125h-2.0825195v4.0869141c0,.8066406.4165039,1.2490234,1.1845703,1.2490234.3774414,0,.7548828-.1171875,1.0151367-.3505859l.3256836.6630859Z"/>
    <path class="st2" d="M116.9545212,28.1215324h-5.7270508c.1040039,1.4316406,1.1972656,2.3818359,2.6943359,2.3818359.8330078,0,1.574707-.2998047,2.0952148-.8984375l.5209961.5986328c-.6118164.7294922-1.5620117,1.1191406-2.6425781,1.1191406-2.1342773,0-3.5922852-1.4570312-3.5922852-3.4882812,0-2.0302734,1.4189453-3.4746094,3.3452148-3.4746094s3.3188477,1.4189453,3.3188477,3.4746094c0,.078125-.0126953.1826172-.0126953.2871094ZM111.2274704,27.4311028h4.8549805c-.1171875-1.3408203-1.09375-2.2773438-2.434082-2.2773438-1.3276367,0-2.3037109.9365234-2.4208984,2.2773438Z"/>
    <path class="st2" d="M121.2645798,24.3598137v.8974609c-.078125,0-.15625-.0126953-.2211914-.0126953-1.4316406,0-2.3037109.9111328-2.3037109,2.5253906v3.4882812h-.9243164v-6.8466797h.8852539v1.3408203c.4291992-.9111328,1.3012695-1.3925781,2.5639648-1.3925781Z"/>
    <path class="st2" d="M130.1171265,24.4115715l-3.4233398,7.6660156c-.5722656,1.3408203-1.3012695,1.7705078-2.2773438,1.7705078-.6381836,0-1.2495117-.2080078-1.6660156-.625l.4291992-.6894531c.3383789.3378906.7548828.5205078,1.2495117.5205078.6118164,0,1.0283203-.2861328,1.4189453-1.1455078l.2993164-.6640625-3.0585938-6.8330078h.9628906l2.5771484,5.8183594,2.5771484-5.8183594h.9111328Z"/>
    <path class="st2" d="M129.4945679,27.8344231c0-2.0302734,1.4838867-3.4746094,3.4882812-3.4746094s3.4750977,1.4443359,3.4750977,3.4746094c0,2.03125-1.4707031,3.4882812-3.4750977,3.4882812s-3.4882812-1.4570312-3.4882812-3.4882812ZM135.5209351,27.8344231c0-1.6005859-1.0800781-2.6679688-2.5380859-2.6679688-1.4575195,0-2.5512695,1.0673828-2.5512695,2.6679688,0,1.6015625,1.09375,2.6689453,2.5512695,2.6689453,1.4580078,0,2.5380859-1.0673828,2.5380859-2.6689453Z"/>
    <path class="st2" d="M143.4760132,24.4115715v6.8466797h-.8852539v-1.25c-.4814453.8330078-1.3662109,1.3144531-2.4599609,1.3144531-1.7441406,0-2.8891602-.9755859-2.8891602-2.9414062v-3.9697266h.9238281v3.8789062c0,1.4580078.7548828,2.1992188,2.0566406,2.1992188,1.4316406,0,2.3295898-.9238281,2.3295898-2.4853516v-3.5927734h.9243164Z"/>
    <path class="st2" d="M148.4765015,24.3598137v.8974609c-.078125,0-.15625-.0126953-.2211914-.0126953-1.4316406,0-2.3037109.9111328-2.3037109,2.5253906v3.4882812h-.9243164v-6.8466797h.8852539v1.3408203c.4291992-.9111328,1.3012695-1.3925781,2.5639648-1.3925781Z"/>
    <path class="st2" d="M158.5136108,27.8344231c0,2.0830078-1.4580078,3.4882812-3.4101562,3.4882812-1.0932617,0-2.0307617-.4677734-2.6030273-1.3535156v3.8134766h-.9243164v-9.3710938h.8852539v1.3535156c.5595703-.9111328,1.5097656-1.4052734,2.6420898-1.4052734,1.9521484,0,3.4101562,1.4052734,3.4101562,3.4746094ZM157.5892944,27.8344231c0-1.5878906-1.1064453-2.6679688-2.5507812-2.6679688-1.4580078,0-2.5512695,1.0800781-2.5512695,2.6679688,0,1.6015625,1.0932617,2.6689453,2.5512695,2.6689453,1.4443359,0,2.5507812-1.0673828,2.5507812-2.6689453Z"/>
    <path class="st2" d="M165.6620483,27.2885246v3.9697266h-.9238281v-3.8789062c0-1.4443359-.7558594-2.1865234-2.0566406-2.1865234-1.4711914,0-2.3950195.9111328-2.3950195,2.4726562v3.5927734h-.9243164v-9.6582031h.9243164v4.0087891c.5073242-.7939453,1.4052734-1.2490234,2.5639648-1.2490234,1.6660156,0,2.8115234.9628906,2.8115234,2.9287109Z"/>
    <path class="st2" d="M172.758728,24.4115715l-3.4238281,7.6660156c-.5722656,1.3408203-1.3017578,1.7705078-2.2773438,1.7705078-.6376953,0-1.25-.2080078-1.6660156-.625l.4296875-.6894531c.3378906.3378906.7548828.5205078,1.2490234.5205078.6123047,0,1.0283203-.2861328,1.4189453-1.1455078l.2988281-.6640625-3.0585938-6.8330078h.9638672l2.5771484,5.8183594,2.5771484-5.8183594h.9111328Z"/>
    <path class="st2" d="M171.9921265,30.4770012l.4160156-.7285156c.546875.4296875,1.4707031.7675781,2.4335938.7675781,1.3017578,0,1.8359375-.4423828,1.8359375-1.1191406,0-1.7832031-4.4384766-.3779297-4.4384766-3.0849609,0-1.1191406.9628906-1.9521484,2.7070312-1.9521484.8847656,0,1.8486328.2470703,2.4208984.6376953l-.4033203.7421875c-.5986328-.4169922-1.3144531-.5859375-2.0175781-.5859375-1.2363281,0-1.7832031.4814453-1.7832031,1.1318359,0,1.8486328,4.4384766.4560547,4.4384766,3.0849609,0,1.1845703-1.0410156,1.9521484-2.8242188,1.9521484-1.1328125,0-2.2255859-.3642578-2.7851562-.8457031Z"/>
    <path class="st2" d="M178.0585327,22.2514153c0-.3515625.2998047-.6513672.6767578-.6513672.3779297,0,.6767578.2871094.6767578.6376953,0,.3779297-.2861328.6767578-.6767578.6767578-.3769531,0-.6767578-.2988281-.6767578-.6630859ZM178.2665405,24.4115715h.9248047v6.8466797h-.9248047v-6.8466797Z"/>
    <path class="st2" d="M186.9755249,24.4115715v9.3710938h-.9238281v-3.8134766c-.5732422.8857422-1.5097656,1.3535156-2.6035156,1.3535156-1.9521484,0-3.4101562-1.4052734-3.4101562-3.4882812,0-2.0693359,1.4580078-3.4746094,3.4101562-3.4746094,1.1328125,0,2.0830078.4941406,2.6425781,1.4052734v-1.3535156h.8847656ZM186.0643921,27.8344231c0-1.5878906-1.09375-2.6679688-2.5380859-2.6679688-1.4580078,0-2.5507812,1.0800781-2.5507812,2.6679688,0,1.6015625,1.0927734,2.6689453,2.5507812,2.6689453,1.4443359,0,2.5380859-1.0673828,2.5380859-2.6689453Z"/>
    <path class="st2" d="M194.6835327,24.4115715v6.8466797h-.8847656v-1.25c-.4814453.8330078-1.3671875,1.3144531-2.4599609,1.3144531-1.7441406,0-2.8896484-.9755859-2.8896484-2.9414062v-3.9697266h.9238281v3.8789062c0,1.4580078.7548828,2.1992188,2.0566406,2.1992188,1.4316406,0,2.3300781-.9238281,2.3300781-2.4853516v-3.5927734h.9238281Z"/>
    <path class="st2" d="M202.196228,28.1215324h-5.7275391c.1044922,1.4316406,1.1982422,2.3818359,2.6943359,2.3818359.8330078,0,1.5751953-.2998047,2.0957031-.8984375l.5205078.5986328c-.6113281.7294922-1.5615234,1.1191406-2.6416016,1.1191406-2.1347656,0-3.5927734-1.4570312-3.5927734-3.4882812,0-2.0302734,1.4189453-3.4746094,3.3447266-3.4746094,1.9267578,0,3.3193359,1.4189453,3.3193359,3.4746094,0,.078125-.0126953.1826172-.0126953.2871094ZM196.468689,27.4311028h4.8554688c-.1171875-1.3408203-1.09375-2.2773438-2.4345703-2.2773438-1.3271484,0-2.3037109.9365234-2.4208984,2.2773438Z"/>
  </g>
  <rect class="st7" x="210.5579224" y="27.5783997" width="14.0435028" height=".4612656"/>
</svg>