<?xml version="1.0" encoding="UTF-8"?>
<svg id="Layer_2" xmlns="http://www.w3.org/2000/svg" width="499.4103101" height="36.3489838" version="1.1" viewBox="0 0 499.4103101 36.3489838">
  <!-- Generator: Adobe Illustrator 29.2.1, SVG Export Plug-In . SVG Version: 2.1.0 Build 116)  -->
  <defs>
    <style>
      .st0 {
        fill: #fff;
      }
    </style>
  </defs>
  <path class="st0" d="M27.1037218.2589299l-10.6411605,26.5325561L5.915242.2589299H0v35.3036743h2.8559239V6.283725l11.7835396,29.8031482h1.0953869L27.6748874,6.283725v29.2788792h4.9841369V.2589299h-5.5553026Z"/>
  <path class="st0" d="M46.6431612,33.1761728v-14.4360215h12.9258709v-2.128213h-12.9258709V2.3871907h15.5235764V.2589299h-20.5077133v35.3036743h20.7111552l.2503864-2.3864315h-15.9774048Z"/>
  <path class="st0" d="M92.6544677.2589299v25.5466744L73.4455833.2589299h-4.2095293v35.3036743h2.8558762V6.5888879l21.8613664,29.4979852h1.6039918V.2589299h-2.9028206Z"/>
  <path class="st0" d="M125.96787.2589299v25.5466744L106.7589856.2589299h-4.2016972v35.3036743h2.8480441V6.5888879l21.8613664,29.4979852h1.6118238V.2589299h-2.9106527Z"/>
  <path class="st0" d="M151.6633261,36.5015891c-9.5539399,0-15.7848035-6.905565-15.7848035-17.3940007,0-10.1770645,5.9194923-19.2633744,16.7192993-19.2633744,10.384518,0,15.9402981,7.788484,15.9402981,17.6537951,0,11.2154781-6.905565,19.00358-16.8747939,19.00358ZM152.0266563,2.2324124c-8.4635674,0-10.6443124,8.7753207-10.6443124,15.6808857,0,9.91727,4.1540364,16.2000925,10.9041068,16.2000925,6.5941937,0,10.7478481-6.1269458,10.7478481-15.7848035,0-7.0094828-2.4921162-16.0961748-11.0076425-16.0961748Z"/>
  <path class="st0" d="M215.8459921.2589299v15.4688476h-16.407737V.2589299h-4.9841369v35.3036743h4.9841369v-17.0806237h16.407737v17.0806237h4.9841369V.2589299h-4.9841369Z"/>
  <path class="st0" d="M310.2413408,21.2400756c-.9389372-1.4084296-1.5570473-2.0265398-4.7806949-4.0530318l-5.6101268-3.6383636c-2.2768784-1.5570473-4.4129235-3.0045894-4.4129235-6.016963,0-4.4129712,4.2095293-5.1406344,7.6913476-5.1406344,1.0876026,0,1.5570473.0469445,3.1610868.203442l4.4677.6650546v-1.8543782l-3.8965343-.7824397c-2.3864315-.5163892-4.4129712-.6259422-5.7587445-.6259422-6.0795715,0-10.1795478,3.7400846-10.1795478,9.2953871,0,1.7135448.3677237,3.3801451,1.2440523,4.7259184.9389372,1.5570951,1.9248188,2.3864792,4.6790217,4.2095293l5.1406344,3.4270896c2.4881524,1.6587683,4.569421,3.0124214,4.569421,6.3847345,0,1.8152658-.7276632,3.3723131-2.136045,4.4129235-1.2910446.8841607-2.7463709,1.2441001-5.3440763,1.2441001-1.4553263,0-2.6446499-.101721-3.8965343-.312995l-4.5146922-.8293841v2.1282607c1.5022708.3677237,1.9169868.5242212,3.4818661.8841607,2.3316549.5242212,4.7728629.7824397,6.3846867.7824397,3.3723131,0,6.126516-.9389372,8.0982793-2.5429289,2.026492-1.6666003,3.1688711-4.1078083,3.1688711-7.0654532,0-2.026492-.5242212-4.0530318-1.5570473-5.5005261Z"/>
  <path class="st0" d="M351.2902383,33.1761728V.2589299h-4.9841369v35.3036743h18.6377188l.2190583-2.3864315h-13.8726401Z"/>
  <path class="st0" d="M234.8142659,33.1761728v-14.4360215h12.9258709v-2.128213h-12.9258709V2.3871907h15.5235764V.2589299h-20.5077133v35.3036743h20.7111552l.2503864-2.3864315h-15.9774048Z"/>
  <path class="st0" d="M280.7618643.2557493v25.5466744L261.5529798.2557493h-4.2095293v35.3036743h2.8558762V6.5857073l21.8613664,29.4979852h1.6039918V.2557493h-2.9028206Z"/>
  <path class="st0" d="M399.0570524.2589299l-10.6411605,26.5325561L377.8685727.2589299h-5.915242v35.3036743h2.8559239V6.283725l11.7835396,29.8031482h1.0953869l11.9400371-29.8031482v29.2788792h4.9841369V.2589299h-5.5553026Z"/>
  <path class="st0" d="M438.78954,32.2880791l-3.8339844-10.7037964L427.2172744-.0031807h-2.9655151l-8.8963013,21.6188354-4.3973389,10.6724243-1.3457642,3.2705688h3.6696167l3.6853027-10.0230103.1956177-.539917.809021-2.1938477h12.1703491l.8150024,2.3425293.1408691.3912354,2.34729,6.7524414-.0078125.0078125,1.1345215,3.2627563h5.3832397l-1.1658325-3.2705688ZM420.3630874,16.5219658l4.045166-10.6568604c.571167,1.9717407.6729126,2.331665,1.5101318,4.7180786l1.9561157,5.9387817,1.4811401,4.1499634h-10.5546875l.5292969-1.411438h-.0078125l1.0406494-2.7385254Z"/>
  <path class="st0" d="M323.782525,33.1761728v-14.4360215h12.9258709v-2.128213h-12.9258709V2.3871907h15.5235764V.2589299h-20.5077133v35.3036743h20.7111552l.2503864-2.3864315h-15.9774048Z"/>
  <path class="st0" d="M497.8532628,21.2400756c-.9389372-1.4084296-1.5570473-2.0265398-4.7806949-4.0530318l-5.6101268-3.6383636c-2.2768784-1.5570473-4.4129235-3.0045894-4.4129235-6.016963,0-4.4129712,4.2095293-5.1406344,7.6913476-5.1406344,1.0876026,0,1.5570473.0469445,3.1610868.203442l4.4677.6650546v-1.8543782l-3.8965343-.7824397c-2.3864315-.5163892-4.4129712-.6259422-5.7587445-.6259422-6.0795715,0-10.1795478,3.7400846-10.1795478,9.2953871,0,1.7135448.3677237,3.3801451,1.2440523,4.7259184.9389372,1.5570951,1.9248188,2.3864792,4.6790217,4.2095293l5.1406344,3.4270896c2.4881524,1.6587683,4.569421,3.0124214,4.569421,6.3847345,0,1.8152658-.7276632,3.3723131-2.136045,4.4129235-1.2910446.8841607-2.7463709,1.2441001-5.3440763,1.2441001-1.4553263,0-2.6446499-.101721-3.8965343-.312995l-4.5146922-.8293841v2.1282607c1.5022708.3677237,1.9169868.5242212,3.4818661.8841607,2.3316549.5242212,4.7728629.7824397,6.3846867.7824397,3.3723131,0,6.126516-.9389372,8.0982793-2.5429289,2.026492-1.6666003,3.1688711-4.1078083,3.1688711-7.0654532,0-2.026492-.5242212-4.0530318-1.5570473-5.5005261Z"/>
  <path class="st0" d="M468.3737863.2557493v25.5466744L449.1649018.2557493h-4.2095293v35.3036743h2.8558762V6.5857073l21.8613664,29.4979852h1.6039918V.2557493h-2.9028206Z"/>
</svg>