<?xml version="1.0" encoding="utf-8"?>
<!-- Generator: Adobe Illustrator 28.1.0, SVG Export Plug-In . SVG Version: 6.00 Build 0)  -->
<svg version="1.1" id="Layer_1" xmlns="http://www.w3.org/2000/svg" xmlns:xlink="http://www.w3.org/1999/xlink" x="0px" y="0px"
	 viewBox="0 0 166 44" style="enable-background:new 0 0 166 44;" xml:space="preserve">
<style type="text/css">
	.st0{clip-path:url(#SVGID_00000157278323320091153220000004137527875280561548_);}
	.st1{fill:#003087;}
	.st2{fill:#0070E0;}
	.st3{fill:#001C64;}
</style>
<g>
	<defs>
		<rect id="SVGID_1_" width="166" height="44"/>
	</defs>
	<clipPath id="SVGID_00000011727689247792835800000010731852085242038439_">
		<use xlink:href="#SVGID_1_"  style="overflow:visible;"/>
	</clipPath>
	<g style="clip-path:url(#SVGID_00000011727689247792835800000010731852085242038439_);">
		<path class="st1" d="M60.6,26.7c5,0,9.2-3.6,10-8.6c0.8-5-3.1-9.3-8.6-9.3h-8.9c-0.3,0-0.6,0.2-0.7,0.6l-4,25.1
			c-0.1,0.4,0.2,0.7,0.5,0.7c0,0,0.1,0,0.1,0h4.7c0.3,0,0.6-0.2,0.7-0.6l1.2-7.4c0.1-0.3,0.3-0.6,0.7-0.6
			C56.3,26.7,60.6,26.7,60.6,26.7z M64.5,17.9c-0.3,1.8-1.7,3.2-4.4,3.2h-3.5l1.1-6.7h3.4C63.9,14.4,64.8,16.1,64.5,17.9L64.5,17.9z
			 M90.9,16.7h-4.5c-0.3,0-0.6,0.2-0.7,0.6l-0.1,0.9c0,0-3.5-3.8-9.6-1.2c-3.5,1.5-5.2,4.5-5.9,6.7c0,0-2.3,6.7,2.9,10.4
			c0,0,4.8,3.6,10.1-0.2L83,34.5c-0.1,0.4,0.2,0.7,0.5,0.7c0,0,0.1,0,0.1,0h4.5c0.3,0,0.6-0.2,0.7-0.6l2.7-17.2
			C91.6,17.1,91.3,16.8,90.9,16.7C90.9,16.7,90.9,16.7,90.9,16.7L90.9,16.7z M84.3,26.2c-0.4,2.5-2.5,4.3-5,4.3
			c-0.5,0-0.9-0.1-1.4-0.2c-1.9-0.6-3-2.5-2.7-4.5c0.4-2.5,2.5-4.3,5-4.3c0.5,0,0.9,0.1,1.4,0.2C83.5,22.4,84.6,24.2,84.3,26.2
			C84.3,26.2,84.3,26.2,84.3,26.2z"/>
		<path class="st2" d="M124.7,26.7c5,0,9.2-3.6,10-8.6c0.8-5-3.1-9.3-8.6-9.3h-8.9c-0.3,0-0.6,0.2-0.7,0.6l-4,25.1
			c0,0.3,0.1,0.6,0.4,0.7c0.1,0,0.2,0.1,0.3,0.1h4.7c0.3,0,0.6-0.2,0.7-0.6l1.2-7.4c0.1-0.3,0.3-0.6,0.7-0.6L124.7,26.7z
			 M128.6,17.9c-0.3,1.8-1.7,3.2-4.4,3.2h-3.5l1.1-6.7h3.4C128,14.4,128.9,16.1,128.6,17.9L128.6,17.9z M155,16.7h-4.4
			c-0.3,0-0.6,0.2-0.7,0.6l-0.1,0.9c0,0-3.5-3.8-9.6-1.2c-3.5,1.5-5.2,4.5-5.9,6.7c0,0-2.3,6.7,2.9,10.4c0,0,4.8,3.6,10.1-0.2
			l-0.1,0.6c0,0.3,0.1,0.6,0.4,0.7c0.1,0,0.2,0.1,0.3,0.1h4.5c0.3,0,0.6-0.2,0.7-0.6l2.7-17.2c0-0.2,0-0.4-0.1-0.5
			C155.3,16.8,155.2,16.7,155,16.7z M148.4,26.2c-0.4,2.5-2.5,4.3-5,4.3c-0.5,0-0.9-0.1-1.4-0.2c-1.9-0.6-3-2.5-2.7-4.5
			c0.4-2.5,2.5-4.3,5-4.3c0.5,0,0.9,0.1,1.4,0.2C147.7,22.4,148.8,24.2,148.4,26.2C148.4,26.2,148.4,26.2,148.4,26.2z"/>
		<path class="st1" d="M107.2,17.1l-5.4,9.1l-2.7-9c-0.1-0.3-0.4-0.5-0.7-0.5h-4.8c-0.3,0-0.5,0.2-0.5,0.5c0,0.1,0,0.1,0,0.2
			L98,32.5l-4.4,7.1c-0.2,0.2-0.1,0.6,0.2,0.7c0.1,0.1,0.2,0.1,0.3,0.1h5.2c0.3,0,0.6-0.2,0.7-0.4l13.6-22.6
			c0.2-0.2,0.1-0.6-0.2-0.7c-0.1-0.1-0.2-0.1-0.3-0.1H108C107.6,16.7,107.4,16.9,107.2,17.1z"/>
		<path class="st2" d="M160,9.4l-4,25.1c0,0.3,0.1,0.6,0.4,0.7c0.1,0,0.2,0.1,0.3,0.1h4.7c0.3,0,0.6-0.2,0.7-0.6l4-25.1
			c0-0.2,0-0.4-0.1-0.5c-0.1-0.1-0.3-0.2-0.5-0.2h-4.7C160.3,8.8,160,9,160,9.4L160,9.4z"/>
		<path class="st3" d="M35.1,20.3c-1,5.7-5.7,10.1-11.8,10.1h-3.9c-0.8,0-1.6,0.7-1.7,1.5L16,42.7c-0.1,0.6-0.4,0.8-1,0.8H8.7
			c-0.6,0-0.8-0.2-0.7-0.8l0.7-7.5l-7.5-0.4c-0.6,0-0.9-0.3-0.8-1L5.6,1.3c0.1-0.6,0.5-0.9,1.1-0.9h13c6.3,0,10.2,4.2,10.7,9.7
			C34.2,12.6,35.9,16,35.1,20.3L35.1,20.3z"/>
		<path class="st2" d="M10.6,23.1L8.7,35.2l-1.2,7.6c-0.1,0.6,0.3,1.1,0.9,1.2c0,0,0.1,0,0.1,0h6.6c0.6,0,1.2-0.5,1.3-1.1l1.7-11.1
			c0.1-0.6,0.6-1.1,1.3-1.1h3.9c6.1,0,11.4-4.5,12.3-10.5c0.7-4.3-1.5-8.2-5.2-10.2c0,0.5,0,0.9-0.1,1.4C29.4,17.5,24.1,22,18,22
			h-6.1C11.3,22,10.7,22.5,10.6,23.1z"/>
		<path class="st1" d="M8.7,35.2H1c-0.6,0-1-0.5-1-1c0-0.1,0-0.1,0-0.2L5.2,1.1C5.3,0.5,5.8,0,6.5,0h13.2C26,0,30.5,4.6,30.4,10.1
			c-1.7-0.9-3.5-1.3-5.4-1.3H14c-0.6,0-1.2,0.5-1.3,1.1l-2.1,13.2L8.7,35.2z"/>
	</g>
</g>
</svg>
