<?xml version="1.0" encoding="UTF-8"?>
<svg id="Layer_1" xmlns="http://www.w3.org/2000/svg" width="626.7" height="800" version="1.1" xmlns:xlink="http://www.w3.org/1999/xlink" viewBox="0 0 626.7 800">
  <!-- Generator: Adobe Illustrator 29.2.1, SVG Export Plug-In . SVG Version: 2.1.0 Build 116)  -->
  <defs>
    <style>
      .st0 {
        fill: #fb3449;
      }

      .st1 {
        fill: #d1d3d3;
      }

      .st2 {
        fill-rule: evenodd;
      }

      .st3 {
        fill: #e8e8e8;
      }
    </style>
  </defs>
  <polygon class="st3" points="493.4 0 0 0 0 800 626.7 800 626.7 133.3 493.4 0"/>
  <polygon class="st0" points="514 66.7 0 66.7 0 0 493.4 0 514 66.7"/>
  <polygon class="st1" points="493.4 133.3 626.7 133.3 493.4 0 493.4 133.3"/>
  <g>
    <g>
      <path d="M249.3,253.3c0,13.6-4,24.1-12,31.5-8,7.4-19.4,11.1-34.2,11.1h-9.2v40.4h-32.9v-121.7h42.1c15.4,0,26.9,3.4,34.6,10.1,7.7,6.7,11.6,16.3,11.6,28.6ZM193.9,269.1h6c4.9,0,8.9-1.4,11.8-4.2,2.9-2.8,4.4-6.6,4.4-11.5,0-8.2-4.5-12.3-13.6-12.3h-8.5s0,28,0,28Z"/>
      <path d="M372,272.9c0,20.3-5.6,36-16.8,46.9-11.2,11-26.9,16.5-47.2,16.5h-39.4v-121.7h42.1c19.5,0,34.6,5,45.2,15,10.6,10,15.9,24.4,15.9,43.3ZM337.9,274.1c0-11.2-2.2-19.4-6.6-24.8-4.4-5.4-11.1-8.1-20.1-8.1h-9.6v68.2h7.3c10,0,17.3-2.9,22-8.7,4.7-5.8,7-14.7,7-26.6Z"/>
      <path d="M426.2,336.3h-32.4v-121.7h71.9v26.4h-39.5v23.2h36.5v26.4h-36.5v45.7h0Z"/>
    </g>
    <path class="st2" d="M382.3,513.7l-68.6,68.6c-3.2,3.2-7.6,5-12.1,5s-8.9-1.8-12.1-5l-68.6-68.6c-6.7-6.7-6.7-17.5,0-24.2,6.7-6.7,17.5-6.7,24.2,0l39.3,39.3v-118.6c0-9.5,7.7-17.1,17.1-17.1s17.1,7.7,17.1,17.1v118.6l39.3-39.3c6.7-6.7,17.5-6.7,24.2,0,6.7,6.7,6.7,17.6,0,24.2Z"/>
    <path class="st2" d="M410.1,638.7c0,9.5-7.7,17.1-17.1,17.1h-182.8c-9.5,0-17.1-7.7-17.1-17.1s7.7-17.1,17.1-17.1h182.8c9.5,0,17.1,7.7,17.1,17.1Z"/>
  </g>
</svg>