<?xml version="1.0" encoding="utf-8"?>
<!-- Generator: Adobe Illustrator 28.1.0, SVG Export Plug-In . SVG Version: 6.00 Build 0)  -->
<svg version="1.1" id="Layer_1" xmlns="http://www.w3.org/2000/svg" xmlns:xlink="http://www.w3.org/1999/xlink" x="0px" y="0px"
	 viewBox="0 0 82.8 34.4" style="enable-background:new 0 0 82.8 34.4;" xml:space="preserve">
<style type="text/css">
	.st0{fill-rule:evenodd;clip-rule:evenodd;fill:#6772E5;}
</style>
<path class="st0" d="M82.8,17.8c0-5.9-2.8-10.5-8.3-10.5c-5.5,0-8.8,4.6-8.8,10.5c0,6.9,3.9,10.4,9.5,10.4c2.7,0,4.8-0.6,6.4-1.5
	v-4.6c-1.6,0.8-3.4,1.3-5.6,1.3c-2.2,0-4.2-0.8-4.5-3.5h11.2C82.7,19.5,82.8,18.3,82.8,17.8L82.8,17.8z M71.4,15.6
	c0-2.6,1.6-3.7,3-3.7c1.4,0,2.9,1.1,2.9,3.7H71.4z M56.8,7.3c-2.3,0-3.7,1.1-4.5,1.8L52,7.6h-5.1v26.8l5.7-1.2l0-6.5
	c0.8,0.6,2,1.4,4.1,1.4c4.1,0,7.9-3.3,7.9-10.6C64.6,10.9,60.8,7.3,56.8,7.3L56.8,7.3z M55.4,23.1c-1.4,0-2.2-0.5-2.7-1.1l0-8.5
	c0.6-0.7,1.4-1.1,2.7-1.1c2.1,0,3.5,2.3,3.5,5.4C59,20.8,57.6,23.1,55.4,23.1z M39,5.9l5.8-1.2V0L39,1.2V5.9z M39,7.7h5.8v20.1H39
	V7.7z M32.9,9.4l-0.4-1.7h-5v20.1h5.7V14.1c1.4-1.8,3.7-1.4,4.4-1.2V7.7C36.9,7.4,34.2,6.9,32.9,9.4L32.9,9.4z M21.4,2.7l-5.6,1.2
	l0,18.4c0,3.4,2.6,5.9,6,5.9c1.9,0,3.3-0.3,4-0.8v-4.7c-0.7,0.3-4.4,1.4-4.4-2v-8.1h4.4V7.7h-4.4L21.4,2.7z M5.8,13.5
	c0-0.9,0.7-1.2,2-1.2c2,0,3.9,0.5,5.7,1.5V8.3c-1.9-0.8-3.8-1.1-5.7-1.1C3.1,7.3,0,9.7,0,13.8c0,6.3,8.7,5.3,8.7,8.1
	c0,1.1-0.9,1.4-2.2,1.4c-1.9,0-4.3-0.8-6.3-1.8v5.5c2.1,0.9,4.3,1.3,6.3,1.3c4.8,0,8.1-2.4,8.1-6.5C14.6,14.8,5.8,16.1,5.8,13.5
	L5.8,13.5z"/>
</svg>
